<svg width="212" height="250" viewBox="0 0 212 250" fill="none" xmlns="http://www.w3.org/2000/svg">
<g clip-path="url(#clip0_11_48)">
<path d="M92.4541 237.19L91.7801 240.133L91.9423 240.309C91.9062 240.399 91.8702 240.489 91.8269 240.579C91.4688 241.386 91.0595 242.169 90.6014 242.924C89.9958 243.928 89.3182 244.895 88.6153 245.845C88.2296 246.37 87.8331 246.892 87.4366 247.41C87.4258 247.428 87.4137 247.444 87.4005 247.46C87.4049 247.442 87.4109 247.424 87.4185 247.406L87.2888 247.378L86.5426 244.147L86.3155 244.658V244.662L85.9479 245.507C85.9767 245.662 86.0055 245.813 86.0416 245.964C86.038 245.96 86.038 245.953 86.0344 245.949C86.0308 245.946 86.0308 245.946 86.0308 245.942C85.9839 245.842 85.9335 245.744 85.8866 245.644L85.3243 246.932L84.1852 246.673C83.5869 246.363 82.9885 246.05 82.3938 245.726C74.269 241.327 66.7463 235.712 61.6818 228.067C59.6687 225.022 58.1471 221.68 57.1725 218.164C55.2513 211.178 55.5829 203.66 59.0793 197.419C59.0793 197.418 59.0794 197.418 59.0796 197.417C59.0797 197.417 59.08 197.416 59.0803 197.416C59.0807 197.416 59.0811 197.415 59.0815 197.415C59.082 197.415 59.0824 197.415 59.0829 197.415C59.1694 197.257 59.2595 197.098 59.3533 196.94C59.4218 197.12 59.4866 197.3 59.5587 197.48V197.483C60.4985 199.926 61.6328 202.29 62.9506 204.552C63.0516 204.728 63.1525 204.905 63.2606 205.077C66.48 210.47 70.6747 215.22 75.6316 219.085C75.6451 219.098 75.6595 219.11 75.6748 219.121C75.692 219.135 75.71 219.149 75.7289 219.161C76.8319 220.024 77.9721 220.836 79.1496 221.596V221.599C80.0688 222.197 81.0132 222.761 81.972 223.297C84.0158 224.434 86.2398 225.528 88.1503 226.891C90.0066 228.211 91.571 229.783 92.4037 231.888C92.4685 232.057 92.5298 232.226 92.5839 232.395L91.0988 236.967L92.4541 237.19Z" fill="#F0F0F0"/>
<path d="M86.3155 244.658V244.662L85.9479 245.507C85.3928 242.428 86.0524 239.172 85.5946 236.053C85.5442 235.704 85.4793 235.355 85.3964 235.01C84.9278 233.039 83.8572 231.193 81.954 230.312C81.3985 230.06 80.8154 229.873 80.2166 229.755C79.0343 229.503 77.8015 229.449 76.6084 229.308C76.3092 229.273 76.0137 229.233 75.7253 229.179C74.1825 228.94 72.7095 228.372 71.407 227.513C69.8123 226.382 68.4227 224.988 67.2978 223.391C66.5545 222.388 65.8627 221.348 65.2252 220.276C65.1386 220.139 65.0593 219.999 64.9764 219.858C63.4846 217.28 62.2611 214.556 61.325 211.729C60.8428 210.284 60.4385 208.814 60.1139 207.326C59.3914 204.073 59.0444 200.749 59.0793 197.419C59.0793 197.418 59.0794 197.418 59.0796 197.417C59.0798 197.417 59.08 197.416 59.0804 197.416C59.0807 197.416 59.0811 197.415 59.0816 197.415C59.082 197.415 59.0825 197.415 59.083 197.415C59.0793 197.264 59.083 197.113 59.0866 196.962C59.0938 196.652 59.5732 196.721 59.566 197.03C59.5624 197.181 59.5588 197.329 59.5588 197.48V197.483C59.5294 200.675 59.8522 203.859 60.5212 206.98C60.5572 207.138 60.5933 207.297 60.6257 207.455C61.6002 211.78 63.238 215.928 65.4811 219.754C65.5063 219.797 65.5315 219.84 65.5604 219.884C66.083 220.772 66.6454 221.635 67.2365 222.481C68.3226 224.108 69.6582 225.555 71.1943 226.769C72.487 227.734 73.9881 228.383 75.5775 228.665C75.7361 228.693 75.8947 228.722 76.0569 228.747C76.1831 228.769 76.3128 228.787 76.4426 228.801C77.6573 228.952 78.9045 229.01 80.1121 229.24C80.6611 229.344 81.2002 229.494 81.7233 229.69C82.5797 230.032 83.3539 230.552 83.995 231.214C84.6361 231.876 85.1296 232.666 85.4432 233.532C85.7646 234.372 85.9848 235.247 86.0993 236.14C86.1389 236.431 86.1677 236.722 86.193 237.017V237.021C86.229 237.496 86.247 237.974 86.2543 238.453C86.2615 239.05 86.2506 239.647 86.2362 240.241C86.1563 241.713 86.1828 243.189 86.3155 244.658V244.658Z" fill="white"/>
<path d="M65.4302 220.175C64.0567 220.871 62.4799 221.058 60.9814 220.701C59.4829 220.344 58.1603 219.467 57.2499 218.227C57.0665 217.975 57.4496 217.679 57.6332 217.931C58.4789 219.087 59.711 219.904 61.107 220.234C62.5031 220.563 63.9712 220.384 65.2464 219.728C65.5236 219.585 65.7059 220.034 65.4302 220.175H65.4302Z" fill="white"/>
<path d="M75.5305 228.808C76.5342 225.829 76.376 222.582 75.0874 219.715C74.9594 219.431 75.4078 219.248 75.5356 219.531C76.871 222.518 77.0288 225.897 75.9775 228.995C75.8771 229.29 75.4307 229.102 75.5305 228.808H75.5305Z" fill="white"/>
<path d="M60.3812 207.025C60.9689 206.866 61.5079 206.564 61.9497 206.146C62.3915 205.728 62.7223 205.206 62.9125 204.629C63.0091 204.333 63.4554 204.521 63.3594 204.816C63.1464 205.453 62.7803 206.028 62.2932 206.491C61.8061 206.954 61.2128 207.291 60.5651 207.472C60.5054 207.494 60.4396 207.493 60.3809 207.468C60.3222 207.444 60.275 207.398 60.249 207.34C60.225 207.281 60.2254 207.214 60.2501 207.155C60.2749 207.096 60.322 207.049 60.3812 207.025H60.3812Z" fill="white"/>
<path d="M87.3789 247.489C87.3861 247.478 87.3933 247.471 87.4005 247.46C87.3861 247.503 87.3717 247.547 87.3609 247.593L87.3789 247.489Z" fill="#F0F0F0"/>
<path d="M98.0953 225.344L97.5907 227.107L94.4907 226.528L93.4634 229.69L93.2868 230.233L92.5839 232.395L91.0988 236.967L92.4541 237.19L91.7801 240.133L91.9423 240.309L91.9927 240.363L92.328 240.73L94.3682 242.953L88.7883 247.719L87.8943 247.514L87.4365 247.41C87.4257 247.428 87.4137 247.444 87.4005 247.46C87.4049 247.442 87.4109 247.424 87.4185 247.406L87.2888 247.378L86.5426 244.147L86.3155 244.658V244.662L85.9479 245.507C85.9767 245.662 86.0055 245.813 86.0416 245.964C86.038 245.96 86.038 245.953 86.0344 245.949C86.0308 245.946 86.0308 245.946 86.0308 245.942C85.9839 245.842 85.9334 245.744 85.8866 245.644C85.1729 244.158 84.4916 242.651 83.8608 241.126C82.3062 237.452 81.0866 233.646 80.2166 229.755C80.1805 229.585 80.1409 229.416 80.1121 229.244V229.24C79.5833 226.724 79.2614 224.168 79.1496 221.599V221.596C79.092 220.19 79.1064 218.781 79.1929 217.376C79.4209 213.745 80.22 210.173 81.5611 206.789C81.5683 206.772 81.5755 206.757 81.5827 206.739C84.1528 200.286 88.6765 194.688 94.8259 191.706C95.0819 191.577 95.345 191.454 95.6081 191.339H95.6153L95.6189 191.336C95.7848 191.264 95.947 191.195 96.1128 191.123C96.0587 191.31 96.001 191.497 95.9506 191.688C95.2231 194.202 94.7024 196.77 94.3934 199.368V199.372C94.3646 199.57 94.3393 199.775 94.3177 199.976V199.98C93.6376 206.246 94.129 212.584 95.7667 218.671C95.7703 218.689 95.7775 218.704 95.7811 218.722C96.3927 220.982 97.1661 223.195 98.0953 225.344Z" fill="#F0F0F0"/>
<path d="M92.328 240.73C92.0432 241.111 91.7513 241.482 91.4557 241.852C91.1709 242.208 90.8862 242.564 90.6014 242.924C89.857 243.839 89.1926 244.817 88.6153 245.845C88.3259 246.379 88.0846 246.938 87.8943 247.514L87.4365 247.41C87.4258 247.428 87.4137 247.444 87.4005 247.46C87.4049 247.442 87.4109 247.424 87.4185 247.406C88.2584 244.788 90.1688 242.759 91.827 240.579C91.8846 240.507 91.9387 240.435 91.9928 240.363L92.328 240.73Z" fill="white"/>
<path d="M96.2318 191.325C96.138 191.444 96.0407 191.566 95.9506 191.688C95.2477 192.598 94.5833 193.537 93.9573 194.505C92.8424 196.212 91.8522 197.997 90.9943 199.847C90.9258 199.991 90.8573 200.138 90.7925 200.286C88.9567 204.327 87.7602 208.627 87.2455 213.034C87.2383 213.078 87.2347 213.117 87.2311 213.16C87.1122 214.189 87.0353 215.222 87.0004 216.258C86.8855 218.209 87.0789 220.165 87.5735 222.056C87.6456 222.305 87.7249 222.549 87.8115 222.787C88.0283 223.368 88.2999 223.929 88.6225 224.459C88.8543 224.847 89.112 225.218 89.3939 225.571C89.5633 225.787 89.7399 225.999 89.9273 226.204C90.0355 226.323 90.1472 226.441 90.259 226.56C90.3527 226.65 90.4428 226.744 90.5365 226.834C91.5098 227.776 92.5839 228.65 93.4634 229.69L93.2868 230.233C92.4397 229.161 91.3476 228.272 90.3635 227.337C89.7457 226.757 89.1834 226.122 88.6838 225.438C88.6189 225.344 88.5504 225.251 88.4891 225.154C88.1552 224.667 87.8668 224.15 87.6276 223.61C87.5051 223.341 87.3933 223.064 87.2924 222.776C86.7035 220.916 86.4354 218.97 86.4994 217.02C86.511 215.771 86.5856 214.524 86.7229 213.283C86.7373 213.121 86.7553 212.962 86.777 212.801C87.1425 209.846 87.8092 206.936 88.7667 204.117C89.9786 200.54 91.6455 197.133 93.7266 193.98C94.3213 193.077 94.9521 192.195 95.619 191.336C95.7055 191.217 95.7956 191.102 95.8893 190.983C96.0803 190.738 96.4228 191.08 96.2318 191.325Z" fill="white"/>
<path d="M86.9485 213.328C85.4318 213.059 84.0604 212.26 83.0792 211.075C82.0981 209.889 81.5711 208.395 81.5923 206.857C81.5938 206.795 81.6195 206.735 81.6642 206.691C81.7089 206.647 81.7689 206.622 81.8318 206.621C81.8946 206.62 81.9553 206.644 82.001 206.687C82.0467 206.73 82.0739 206.789 82.0769 206.851C82.0545 208.283 82.5455 209.675 83.4614 210.777C84.3773 211.879 85.6578 212.618 87.0716 212.86C87.3788 212.913 87.2539 213.381 86.9485 213.328V213.328Z" fill="white"/>
<path d="M89.8046 226.29C92.4032 224.515 94.2358 221.827 94.9369 218.763C95.0061 218.459 95.4746 218.582 95.4055 218.886C94.6699 222.073 92.7572 224.866 90.049 226.708C89.7907 226.883 89.5478 226.464 89.8047 226.29H89.8046Z" fill="white"/>
<path d="M90.8506 199.795C91.4157 200.021 92.0282 200.104 92.6332 200.035C93.2382 199.967 93.8168 199.749 94.3169 199.403C94.5728 199.224 94.8154 199.643 94.5612 199.82C94.0069 200.201 93.3677 200.44 92.6994 200.517C92.0311 200.594 91.3541 200.507 90.7275 200.262C90.6665 200.244 90.6147 200.204 90.5826 200.149C90.5505 200.094 90.5406 200.029 90.5547 199.967C90.5714 199.905 90.6117 199.852 90.6671 199.82C90.7225 199.788 90.7884 199.779 90.8506 199.795V199.795Z" fill="white"/>
<path d="M142.237 40.2634C139.508 25.6872 143.804 9.10435 155.746 0.281372C155.069 16.3927 160.125 32.2236 170.018 44.9733C173.851 49.8765 178.626 54.9317 178.478 61.1489C178.386 65.0174 176.289 68.6213 173.527 71.3364C170.764 74.0515 167.361 76.009 163.998 77.936L163.475 78.7486C153.618 67.6528 144.966 54.8396 142.237 40.2634Z" fill="#F0F0F0"/>
<path d="M155.964 0.504209C150.947 11.7102 149.595 24.209 152.101 36.2252C152.654 38.7963 153.438 41.3564 154.769 43.6407C156.084 45.8572 157.969 47.6821 160.229 48.9257C162.313 50.1274 164.584 51.1158 166.339 52.8022C168.189 54.5798 169.013 57.0058 168.944 59.5405C168.86 62.6418 167.664 65.528 166.397 68.3099C164.99 71.3987 163.479 74.5848 163.57 78.0574C163.581 78.4782 162.926 78.4707 162.915 78.0506C162.756 72.0088 167.133 67.1565 168.109 61.3591C168.564 58.6539 168.205 55.7955 166.299 53.6986C164.632 51.865 162.291 50.8437 160.171 49.6451C157.944 48.3866 156.048 46.8317 154.639 44.676C153.198 42.4709 152.311 39.936 151.695 37.3903C150.341 31.6072 149.907 25.6477 150.408 19.73C150.943 12.973 152.632 6.3571 155.402 0.168462C155.573 -0.214504 156.134 0.123743 155.964 0.504209H155.964Z" fill="white"/>
<path d="M151.066 32.4034C148.989 32.5493 146.927 31.9536 145.249 30.7226C143.572 29.4916 142.387 27.7056 141.907 25.6834C141.811 25.2739 142.444 25.1062 142.54 25.5163C142.984 27.4001 144.087 29.0638 145.652 30.2069C147.217 31.35 149.139 31.8972 151.073 31.7499C151.493 31.7184 151.484 32.3721 151.066 32.4034V32.4034Z" fill="white"/>
<path d="M159.092 48.4552C161.912 45.2729 163.426 41.1468 163.333 36.8996C163.324 36.4788 163.978 36.4862 163.988 36.9065C164.076 41.3263 162.492 45.617 159.55 48.9222C159.269 49.237 158.813 48.7683 159.092 48.4552V48.4552Z" fill="white"/>
<path d="M151.71 13.3789C152.526 13.4895 153.356 13.3964 154.127 13.1077C154.897 12.819 155.584 12.3438 156.125 11.7248C156.401 11.4066 156.858 11.8756 156.583 12.1918C155.982 12.8728 155.223 13.3967 154.372 13.7175C153.522 14.0384 152.605 14.1465 151.703 14.0323C151.617 14.0287 151.536 13.9925 151.476 13.9312C151.416 13.8699 151.381 13.788 151.379 13.7022C151.381 13.6156 151.416 13.5332 151.478 13.4726C151.54 13.4121 151.624 13.3784 151.71 13.3788V13.3789Z" fill="white"/>
<path d="M204.582 12.3381C204.415 12.5417 204.248 12.7453 204.083 12.9543C201.852 15.7032 199.849 18.6285 198.093 21.7013C197.953 21.9367 197.816 22.1774 197.683 22.4163C193.532 29.8642 190.802 38.0165 189.633 46.4588C189.171 49.8187 188.966 53.2087 189.019 56.5996C189.093 61.2826 189.546 66.3543 188.108 70.6613C187.963 71.1124 187.79 71.554 187.59 71.9837L164.508 79.3228C164.448 79.3132 164.388 79.3089 164.327 79.2994L163.419 79.6345C163.404 79.4598 163.392 79.2783 163.377 79.1036C163.368 79.0023 163.364 78.8994 163.355 78.7981C163.351 78.73 163.346 78.6619 163.338 78.6007C163.337 78.578 163.336 78.5553 163.336 78.5379C163.328 78.4768 163.327 78.4191 163.321 78.3632C163.252 77.3488 163.188 76.3328 163.136 75.3133C163.134 75.3081 163.134 75.3081 163.138 75.3012C162.741 67.5368 162.991 59.6711 164.429 52.0934C164.473 51.8654 164.514 51.6323 164.568 51.4009C165.235 47.9888 166.181 44.6369 167.395 41.3785C168.066 39.5965 168.827 37.8495 169.675 36.1442C171.874 31.7422 174.753 27.7128 178.206 24.2037C185.092 17.2094 194.143 12.4907 203.841 12.3422C204.089 12.3386 204.332 12.3365 204.582 12.3381Z" fill="#F0F0F0"/>
<path d="M204.624 12.6469C193.857 18.5797 185.238 27.7472 179.989 38.8472C178.879 41.232 177.961 43.7477 177.646 46.3712C177.358 48.9308 177.762 51.5206 178.817 53.8715C179.756 56.0832 180.973 58.237 181.357 60.638C181.761 63.1687 180.956 65.6007 179.372 67.5833C177.433 70.009 174.738 71.5951 172.047 73.0547C169.06 74.6754 165.932 76.3115 163.91 79.139C163.665 79.4816 163.146 79.0822 163.391 78.7401C166.909 73.8206 173.331 72.5762 177.607 68.5333C179.603 66.6469 181.04 64.1488 180.784 61.3295C180.559 58.8642 179.306 56.6421 178.336 54.4109C177.318 52.0681 176.742 49.6876 176.917 47.1198C177.097 44.4931 177.918 41.9363 178.962 39.5336C181.37 34.1027 184.619 29.0835 188.589 24.6597C193.092 19.5858 198.432 15.3181 204.377 12.0412C204.745 11.8385 204.989 12.4456 204.624 12.6469V12.6469Z" fill="white"/>
<path d="M181.468 35.1737C179.722 34.0421 178.435 32.3278 177.838 30.3369C177.241 28.3459 177.373 26.2081 178.209 24.305C178.38 23.9206 178.987 24.1671 178.816 24.5521C178.034 26.3227 177.911 28.3142 178.471 30.167C179.03 32.0198 180.235 33.612 181.868 34.6561C182.223 34.8834 181.821 35.3998 181.468 35.1737H181.468Z" fill="white"/>
<path d="M178.193 52.8126C182.364 51.9661 186.062 49.5815 188.55 46.1345C188.797 45.7927 189.315 46.1921 189.069 46.5334C186.473 50.1156 182.62 52.5893 178.277 53.4608C177.863 53.5436 177.781 52.895 178.193 52.8126H178.193Z" fill="white"/>
<path d="M193.46 20.3709C194.044 20.9492 194.764 21.3737 195.553 21.6062C196.342 21.8386 197.177 21.8718 197.983 21.7026C198.395 21.6147 198.477 22.2634 198.067 22.3508C197.176 22.5335 196.254 22.4958 195.381 22.2409C194.509 21.986 193.712 21.5217 193.06 20.8885C192.994 20.834 192.951 20.7563 192.94 20.6711C192.929 20.586 192.951 20.4999 193.001 20.4302C193.054 20.362 193.132 20.3174 193.218 20.3063C193.304 20.2952 193.391 20.3184 193.46 20.3709V20.3709Z" fill="white"/>
<path d="M56.2588 22.8506C54.9834 21.9521 53.588 21.0152 52.0273 21.0526C48.25 21.1433 46.2134 26.6695 42.44 26.4751C40.0336 26.3512 38.4361 23.9115 36.1954 23.0269C33.2783 21.8753 29.5661 24.1276 29.2478 27.2421L29.6224 26.8999C40.9618 29.6587 52.729 30.2012 64.275 28.4976C61.603 26.6152 58.9309 24.7329 56.2588 22.8506Z" fill="#F0F0F0"/>
<path d="M63.3265 29.4977C70.5654 29.4977 76.4337 23.6413 76.4337 16.417C76.4337 9.19281 70.5654 3.33641 63.3265 3.33641C56.0876 3.33641 50.2193 9.19281 50.2193 16.417C50.2193 23.6413 56.0876 29.4977 63.3265 29.4977Z" fill="#FF6582"/>
<path d="M94.0072 13.9183C92.3818 12.7732 90.6035 11.5793 88.6145 11.627C83.8006 11.7425 81.2052 18.7852 76.3963 18.5375C73.3295 18.3796 71.2936 15.2704 68.4381 14.1431C64.7205 12.6754 59.9896 15.5458 59.584 19.5149L60.0614 19.0789C74.5125 22.5947 89.5088 23.2861 104.223 21.1149C100.818 18.716 97.4125 16.3171 94.0072 13.9183Z" fill="#F0F0F0"/>
<path d="M211.907 145.229L197.997 70.9023C197.759 69.677 197.111 68.5688 196.159 67.7594C195.207 66.9499 194.008 66.4873 192.758 66.4472C192.646 66.4447 192.533 66.4447 192.421 66.4472L182.945 66.7865L181.925 66.8239L177.196 66.9935L176.177 67.0284L173.135 67.1382L111.797 69.3358C111.705 69.3408 111.61 69.3408 111.517 69.3383L97.7724 69.0514L92.686 68.9467L92.5235 68.9442L88.7692 68.8643L56.0558 68.1858L47.3826 68.0038L43.1059 67.9165L42.0812 67.894L37.2046 67.7942L36.1824 67.7718L31.1934 67.6695L30.1711 67.6471L24.6897 67.5323L23.8298 67.5148L18.9408 67.4126L18.1685 67.3976H18.056C16.7581 67.4029 15.5038 67.8659 14.5149 68.7049C13.526 69.5439 12.8662 70.7048 12.6521 71.9824L0.0721452 149.11C-0.0556059 149.892 -0.0116306 150.691 0.201025 151.454C0.41368 152.217 0.789924 152.924 1.30371 153.527C1.81749 154.13 2.45652 154.615 3.17653 154.947C3.89654 155.279 4.68031 155.451 5.47355 155.451H77.719C78.7823 155.454 79.8171 155.795 80.6734 156.424L82.0431 157.437C82.9871 158.13 84.1278 158.506 85.2999 158.509H127.876C128.596 158.511 129.308 158.37 129.973 158.096C130.638 157.821 131.241 157.417 131.748 156.908C132.615 156.043 133.773 155.528 134.997 155.464L206.813 151.687C207.592 151.646 208.353 151.44 209.045 151.082C209.738 150.724 210.345 150.222 210.828 149.611C211.31 148.999 211.656 148.292 211.842 147.536C212.028 146.781 212.05 145.994 211.907 145.229V145.229Z" fill="#CCCCCC"/>
<path d="M200.524 143.208L192.771 66.547C192.768 66.5146 192.763 66.4797 192.758 66.4472C192.613 65.2223 192.007 64.0981 191.064 63.3018L174.385 49.4352C173.659 48.8276 172.758 48.4683 171.812 48.41C164.182 47.9211 125.387 46.1101 111.067 58.5149C110.633 58.8923 110.121 59.17 109.567 59.3286C109.013 59.4872 108.432 59.5228 107.863 59.4329C107.293 59.3406 106.749 59.1265 106.27 58.8054C105.79 58.4842 105.385 58.0635 105.083 57.572C103.866 55.6781 102.271 54.0546 100.397 52.8027C99.5556 52.2197 98.6791 51.6891 97.7724 51.2137C96.9701 50.7922 96.0978 50.3831 95.148 49.989C94.3306 49.6497 93.4583 49.3229 92.5235 49.0111C87.677 47.3948 81.1983 46.1874 72.54 45.7833C68.9482 45.6137 65.044 45.5913 60.9374 45.7135C57.1881 45.8233 53.2039 46.0502 49.0972 46.3895L49.0373 46.392L21.2504 63.3217C20.6274 63.7093 20.101 64.2332 19.7108 64.8538C19.3206 65.4743 19.077 66.1753 18.9983 66.9037L18.9408 67.4126L10.1176 146.089C10.0414 146.758 10.103 147.435 10.2985 148.079C10.4941 148.723 10.8196 149.32 11.2549 149.834C11.6786 150.334 12.2063 150.737 12.8014 151.015C13.3965 151.292 14.0449 151.437 14.7017 151.44H83.1679C84.0782 151.445 84.9601 151.757 85.6699 152.326L88.6593 154.715C89.4382 155.34 90.4024 155.689 91.4012 155.708L121.505 156.199H121.578C122.338 156.198 123.085 156.004 123.75 155.636L129.556 152.418C130.086 152.124 130.675 151.953 131.281 151.919L196.168 148.499C196.8 148.465 197.418 148.299 197.982 148.011C198.546 147.723 199.042 147.32 199.439 146.828C199.852 146.327 200.161 145.749 200.347 145.127C200.533 144.506 200.594 143.853 200.524 143.208V143.208Z" fill="#E6E6E6"/>
<path d="M177.875 129.383L176.967 117.451L173.135 67.1396L172.566 59.6968C172.422 57.7419 171.553 55.9106 170.13 54.5599C168.707 53.2092 166.83 52.4359 164.867 52.3908C150.827 52.031 125.404 52.6641 112.928 61.0062C111.541 61.9476 109.858 62.3534 108.192 62.1483C106.527 61.9431 104.994 61.1409 103.877 59.8911C102.151 57.9998 100.078 56.4552 97.7709 55.3405C96.0824 54.4954 94.327 53.7904 92.5226 53.2325C87.2419 51.549 80.5783 50.5262 72.5316 50.164L53.4346 50.0525H53.4021C52.0792 50.0537 50.8064 50.5576 49.8423 51.4616C48.8782 52.3656 48.2951 53.602 48.2115 54.9196L47.3825 68.0029L43.7599 125.38C43.6921 126.448 43.8427 127.52 44.2025 128.529C44.5623 129.538 45.1238 130.463 45.853 131.249C46.5821 132.035 47.4637 132.665 48.4441 133.1C49.4246 133.536 50.4835 133.768 51.5566 133.783C83.6121 134.258 97.6159 141.01 103.722 146.585C105.02 147.774 106.679 148.497 108.435 148.639C110.192 148.781 111.945 148.334 113.418 147.37C124.502 140.125 142.929 138.11 157.596 137.797C162.087 137.704 166.225 137.765 169.693 137.887C170.808 137.927 171.918 137.732 172.952 137.314C173.985 136.896 174.919 136.265 175.691 135.463C176.464 134.66 177.057 133.703 177.434 132.656C177.81 131.608 177.961 130.493 177.875 129.383V129.383Z" fill="white"/>
<path d="M18.7383 146.025C18.7264 146.025 18.7139 146.025 18.7019 146.024C18.6351 146.019 18.5698 146.001 18.5098 145.971C18.4499 145.942 18.3964 145.9 18.3524 145.85C18.3085 145.799 18.275 145.741 18.2537 145.677C18.2325 145.614 18.224 145.547 18.2288 145.48L23.7442 67.7598C23.7481 67.6928 23.7654 67.6273 23.7951 67.5671C23.8248 67.5069 23.8662 67.4532 23.917 67.4092C23.9678 67.3652 24.0269 67.3318 24.0908 67.3109C24.1547 67.29 24.2221 67.2821 24.2891 67.2876C24.356 67.2923 24.4213 67.3101 24.4812 67.34C24.5412 67.3699 24.5947 67.4112 24.6386 67.4617C24.6825 67.5123 24.7161 67.5709 24.7373 67.6343C24.7585 67.6978 24.767 67.7648 24.7623 67.8315L19.2469 145.552C19.2379 145.68 19.1804 145.8 19.0861 145.888C18.9917 145.976 18.8674 146.025 18.7383 146.025Z" fill="white"/>
<path d="M25.3756 142.968C25.3636 142.968 25.3511 142.968 25.3392 142.967C25.2723 142.962 25.207 142.944 25.1471 142.914C25.0871 142.884 25.0336 142.843 24.9897 142.793C24.9457 142.742 24.9122 142.683 24.891 142.62C24.8698 142.557 24.8613 142.49 24.866 142.423L30.3814 64.7027C30.3853 64.6357 30.4027 64.5702 30.4323 64.51C30.462 64.4497 30.5035 64.3961 30.5542 64.3521C30.605 64.3081 30.6641 64.2746 30.728 64.2538C30.7919 64.2329 30.8593 64.225 30.9264 64.2305C30.9932 64.2352 31.0585 64.253 31.1185 64.2828C31.1784 64.3127 31.2319 64.3541 31.2758 64.4046C31.3198 64.4551 31.3533 64.5138 31.3745 64.5772C31.3958 64.6406 31.4043 64.7076 31.3995 64.7743L25.8841 142.494C25.8751 142.623 25.8177 142.743 25.7233 142.831C25.6289 142.919 25.5047 142.968 25.3756 142.968V142.968Z" fill="white"/>
<path d="M31.5022 141.44C31.4903 141.44 31.4778 141.439 31.4658 141.438C31.399 141.433 31.3337 141.416 31.2737 141.386C31.2138 141.356 31.1603 141.314 31.1164 141.264C31.0724 141.213 31.0389 141.155 31.0177 141.091C30.9964 141.028 30.9879 140.961 30.9927 140.894L36.5081 63.1741C36.512 63.1071 36.5293 63.0416 36.559 62.9814C36.5887 62.9212 36.6301 62.8675 36.6809 62.8235C36.7317 62.7795 36.7908 62.7461 36.8547 62.7252C36.9186 62.7043 36.986 62.6964 37.053 62.7019C37.1199 62.7066 37.1852 62.7244 37.2451 62.7543C37.3051 62.7842 37.3586 62.8255 37.4025 62.876C37.4464 62.9265 37.48 62.9852 37.5012 63.0486C37.5224 63.1121 37.5309 63.1791 37.5262 63.2458L32.0108 140.966C32.0018 141.094 31.9443 141.215 31.85 141.303C31.7556 141.391 31.6313 141.439 31.5022 141.44V141.44Z" fill="white"/>
<path d="M37.6289 138.382C37.617 138.382 37.6045 138.382 37.5925 138.381C37.5257 138.376 37.4604 138.358 37.4004 138.329C37.3405 138.299 37.287 138.257 37.243 138.207C37.1991 138.156 37.1656 138.098 37.1444 138.034C37.1231 137.971 37.1146 137.904 37.1194 137.837L42.6348 60.117C42.6387 60.05 42.656 59.9845 42.6857 59.9243C42.7154 59.8641 42.7568 59.8104 42.8076 59.7664C42.8584 59.7224 42.9175 59.689 42.9814 59.6681C43.0453 59.6472 43.1127 59.6393 43.1797 59.6448C43.2466 59.6495 43.3119 59.6673 43.3718 59.6972C43.4318 59.727 43.4853 59.7684 43.5292 59.8189C43.5731 59.8694 43.6067 59.9281 43.6279 59.9915C43.6491 60.055 43.6576 60.1219 43.6529 60.1887L38.1375 137.909C38.1285 138.037 38.071 138.158 37.9767 138.246C37.8823 138.333 37.758 138.382 37.6289 138.382V138.382Z" fill="white"/>
<path d="M194.369 146.535C194.381 146.535 194.393 146.534 194.405 146.533C194.472 146.529 194.537 146.511 194.597 146.481C194.657 146.451 194.711 146.41 194.755 146.359C194.799 146.309 194.832 146.25 194.853 146.187C194.875 146.123 194.883 146.056 194.878 145.989L189.363 68.2694C189.359 68.2024 189.342 68.1368 189.312 68.0766C189.282 68.0164 189.241 67.9627 189.19 67.9187C189.139 67.8747 189.08 67.8413 189.016 67.8204C188.953 67.7996 188.885 67.7916 188.818 67.7972C188.751 67.8019 188.686 67.8196 188.626 67.8495C188.566 67.8794 188.513 67.9208 188.469 67.9713C188.425 68.0218 188.391 68.0804 188.37 68.1439C188.349 68.2073 188.34 68.2743 188.345 68.341L193.86 146.061C193.869 146.19 193.927 146.31 194.021 146.398C194.116 146.486 194.24 146.535 194.369 146.535V146.535Z" fill="white"/>
<path d="M187.732 141.949C187.744 141.949 187.756 141.949 187.768 141.948C187.835 141.943 187.9 141.925 187.96 141.895C188.02 141.865 188.074 141.824 188.117 141.774C188.161 141.723 188.195 141.664 188.216 141.601C188.237 141.537 188.246 141.471 188.241 141.404L182.726 63.6837C182.722 63.6167 182.705 63.5511 182.675 63.4909C182.645 63.4307 182.604 63.377 182.553 63.333C182.502 63.289 182.443 63.2556 182.379 63.2347C182.315 63.2138 182.248 63.2059 182.181 63.2115C182.114 63.2161 182.049 63.2339 181.989 63.2638C181.929 63.2937 181.875 63.3351 181.831 63.3856C181.787 63.4361 181.754 63.4947 181.733 63.5581C181.711 63.6216 181.703 63.6886 181.708 63.7553L187.223 141.475C187.232 141.604 187.29 141.724 187.384 141.812C187.478 141.9 187.603 141.949 187.732 141.949V141.949Z" fill="white"/>
<path d="M181.605 136.854C181.617 136.854 181.629 136.853 181.641 136.852C181.708 136.848 181.773 136.83 181.833 136.8C181.893 136.77 181.947 136.729 181.991 136.678C182.035 136.628 182.068 136.569 182.09 136.506C182.111 136.442 182.119 136.375 182.115 136.309L176.599 58.5884C176.595 58.5215 176.578 58.4559 176.548 58.3957C176.518 58.3355 176.477 58.2818 176.426 58.2378C176.375 58.1938 176.316 58.1604 176.252 58.1395C176.189 58.1186 176.121 58.1107 176.054 58.1162C175.987 58.1209 175.922 58.1387 175.862 58.1686C175.802 58.1985 175.749 58.2398 175.705 58.2903C175.661 58.3409 175.627 58.3995 175.606 58.4629C175.585 58.5264 175.576 58.5934 175.581 58.6601L181.096 136.38C181.105 136.509 181.163 136.629 181.257 136.717C181.352 136.805 181.476 136.854 181.605 136.854V136.854Z" fill="white"/>
<path d="M56.3093 67.6095C67.8177 63.9452 80.6569 64.9153 91.5594 70.0776C94.6702 71.5428 97.6082 73.3487 100.319 75.4618C101.086 76.0625 102.177 74.9881 101.402 74.381C91.3883 66.6297 78.8062 62.9475 66.1836 64.0741C62.6915 64.386 59.244 65.0772 55.9021 66.1355C54.9666 66.4334 55.3665 67.9097 56.3093 67.6095H56.3093Z" fill="#3F3D56"/>
<path d="M119.636 76.0548C130.336 70.4422 143.148 69.2183 154.782 72.4043C158.099 73.3104 161.304 74.5822 164.338 76.1962C165.208 76.6592 165.982 75.3401 165.112 74.8764C154.024 68.9721 140.714 67.6129 128.606 70.9042C125.229 71.824 121.962 73.1085 118.863 74.7349C117.99 75.1928 118.763 76.5125 119.636 76.0548V76.0548Z" fill="#3F3D56"/>
<path d="M119.636 86.2452C130.336 80.6327 143.148 79.4088 154.782 82.5947C158.099 83.5008 161.304 84.7726 164.338 86.3867C165.208 86.8496 165.982 85.5306 165.112 85.0668C154.024 79.1625 140.714 77.8033 128.606 81.0946C125.229 82.0144 121.962 83.2989 118.863 84.9254C117.99 85.3832 118.763 86.703 119.636 86.2452V86.2452Z" fill="#3F3D56"/>
<path d="M165.486 95.889C165.494 95.7578 165.463 95.6272 165.395 95.5143C165.328 95.4013 165.228 95.3111 165.109 95.2554C156.227 90.6139 146.156 88.7313 136.192 89.85C136.13 89.855 136.072 89.865 136.005 89.87H136.002C135.941 89.8755 135.88 89.8846 135.82 89.8974C129.894 90.578 124.145 92.3463 118.863 95.1133C118.748 95.1817 118.653 95.2789 118.587 95.3952C118.52 95.5115 118.486 95.643 118.486 95.7768V114.787C118.488 114.904 118.516 115.019 118.569 115.123C118.622 115.228 118.698 115.318 118.792 115.389C118.885 115.46 118.994 115.508 119.109 115.531C119.224 115.554 119.342 115.55 119.456 115.52C119.691 115.453 119.925 115.388 120.165 115.326C125.505 113.883 130.986 113.028 136.512 112.774C136.63 112.769 136.747 112.764 136.87 112.759C141.37 112.566 145.879 112.728 150.354 113.243C150.448 113.248 150.542 113.258 150.634 113.273C150.864 113.298 151.099 113.325 151.329 113.355C151.422 113.365 151.509 113.375 151.594 113.39C152.489 113.502 153.376 113.629 154.266 113.767C155.551 113.971 156.836 114.199 158.12 114.45C158.2 114.465 158.283 114.485 158.365 114.5C160.427 114.909 162.479 115.383 164.521 115.907C164.635 115.936 164.754 115.939 164.869 115.916C164.984 115.893 165.093 115.844 165.186 115.773C165.279 115.702 165.355 115.61 165.408 115.506C165.461 115.401 165.49 115.286 165.491 115.168V95.9189C165.492 95.9087 165.49 95.8985 165.486 95.889Z" fill="#3F3D56"/>
<path d="M137.393 90.8866C136.832 90.6123 136.189 90.5559 135.588 90.7284C135.323 90.8276 135.08 90.9785 134.874 91.1721C134.667 91.3658 134.502 91.5985 134.386 91.8566C134.178 92.3515 134.045 92.8745 133.991 93.4085C133.959 93.6185 133.957 93.8836 134.168 93.9816C134.245 94.0094 134.328 94.0158 134.408 93.9999C134.488 93.9841 134.563 93.9467 134.623 93.8918C134.732 93.7843 134.822 93.659 134.889 93.5211C135.257 92.9508 135.762 92.4821 136.359 92.1582C136.956 91.8344 137.625 91.6659 138.304 91.6683L138.87 91.8932C138.425 91.4933 137.928 91.1548 137.393 90.8866V90.8866Z" fill="#FF6582"/>
<path d="M143.513 95.2681C143.074 94.6234 142.554 93.9351 141.74 93.7246C140.797 93.4808 139.828 93.9651 139.006 94.443C136.563 95.8632 134.196 97.4119 131.917 99.0826L131.92 99.1077L137.21 98.7836C138.484 98.7056 139.801 98.6168 140.927 98.0814C141.332 97.8285 141.783 97.6606 142.255 97.588C142.548 97.6038 142.834 97.6773 143.098 97.8042C143.362 97.9312 143.598 98.109 143.793 98.3275C146.231 100.634 146.936 104.16 149.672 106.186C147.931 102.38 145.871 98.7275 143.513 95.2681V95.2681Z" fill="white"/>
<path d="M136.87 112.759C136.748 112.764 136.63 112.769 136.513 112.774C135.66 112.468 134.787 112.198 133.904 111.964C133.332 111.811 132.75 111.673 132.168 111.556C131.51 111.413 130.846 111.301 130.182 111.204C128.919 111.021 127.645 110.914 126.368 110.884C126.359 110.885 126.349 110.884 126.34 110.881C126.33 110.878 126.322 110.873 126.315 110.866C126.307 110.86 126.302 110.852 126.298 110.843C126.294 110.834 126.292 110.824 126.292 110.815C126.292 110.805 126.294 110.795 126.298 110.787C126.302 110.778 126.307 110.77 126.315 110.763C126.322 110.757 126.33 110.752 126.34 110.749C126.349 110.746 126.359 110.745 126.368 110.746C126.532 110.746 126.695 110.751 126.853 110.761C128.133 110.808 129.408 110.933 130.672 111.133C131.331 111.24 131.99 111.368 132.643 111.51C133.235 111.643 133.828 111.791 134.41 111.954C135.242 112.188 136.062 112.456 136.87 112.759Z" fill="white"/>
<path d="M151.595 113.39C151.508 113.375 151.421 113.365 151.329 113.355C150.977 113.064 150.62 112.789 150.247 112.519C149.782 112.183 149.303 111.867 148.812 111.571C147.727 110.914 146.594 110.338 145.422 109.849C143.57 109.079 141.653 108.476 139.694 108.045C137.459 107.557 135.196 107.203 132.919 106.986C130.642 106.751 128.354 106.609 126.067 106.466C125.97 106.461 125.965 106.318 126.067 106.323C126.353 106.344 126.639 106.359 126.93 106.379C129.243 106.522 131.556 106.685 133.853 106.945C136.131 107.189 138.391 107.58 140.618 108.117C142.519 108.584 144.375 109.22 146.163 110.017C147.191 110.478 148.187 111.008 149.144 111.602C149.752 111.984 150.339 112.392 150.9 112.825C151.135 113.008 151.37 113.192 151.595 113.39Z" fill="white"/>
<path d="M150.635 113.273C150.542 113.258 150.448 113.248 150.354 113.243C150.247 113.156 150.135 113.074 150.022 112.993C149.236 112.431 148.416 111.919 147.567 111.459C146.795 111.041 146.003 110.662 145.193 110.323C143.341 109.551 141.424 108.947 139.464 108.519C137.229 108.031 134.967 107.677 132.689 107.46C130.412 107.225 128.125 107.083 125.837 106.94C125.74 106.93 125.74 106.792 125.837 106.797C126.128 106.818 126.414 106.833 126.7 106.853C129.013 106.996 131.326 107.159 133.623 107.419C135.901 107.662 138.161 108.054 140.388 108.591C142.29 109.057 144.145 109.693 145.933 110.491C146.607 110.797 147.265 111.128 147.909 111.49C148.863 112.013 149.774 112.609 150.635 113.273V113.273Z" fill="white"/>
<path d="M158.365 114.501C158.283 114.486 158.201 114.465 158.12 114.45C158.028 114.353 157.941 114.251 157.854 114.15C157.415 113.645 156.981 113.136 156.552 112.621C154.863 110.613 153.259 108.545 151.748 106.435C150.451 104.632 149.221 102.792 148.057 100.917C147.5 100.031 146.964 99.1339 146.438 98.227C146.03 97.5239 145.632 96.819 145.244 96.1125C145.131 95.9087 145.024 95.7048 144.917 95.501C144.667 95.022 144.416 94.538 144.151 94.0642C143.862 93.4836 143.439 92.9805 142.915 92.5968C142.654 92.422 142.351 92.3184 142.037 92.2962C141.595 92.2978 141.159 92.4099 140.771 92.6222C137.915 93.9497 135.22 95.5994 132.74 97.5391C130.318 99.4193 128.128 101.579 126.215 103.974C126.154 104.046 126.021 103.979 126.077 103.903C126.307 103.618 126.542 103.332 126.777 103.052C128.615 100.882 130.685 98.9193 132.949 97.1977C132.954 97.1926 132.965 97.1875 132.97 97.1825C133.169 97.0245 133.368 96.8717 133.572 96.7239C134.837 95.7947 136.153 94.9373 137.514 94.1559C138.208 93.7534 138.918 93.3712 139.643 93.0095C139.821 92.9178 140.005 92.826 140.189 92.7394C140.373 92.6477 140.557 92.5612 140.74 92.4744C141.104 92.2893 141.502 92.1801 141.91 92.1535C143.329 92.1331 144.059 93.5598 144.565 94.5227C144.723 94.8234 144.886 95.124 145.045 95.4246C145.657 96.5608 146.295 97.692 146.959 98.8078C147.362 99.5008 147.781 100.189 148.205 100.871C148.812 101.845 149.435 102.808 150.084 103.766C150.084 103.766 150.084 103.767 150.084 103.768C150.084 103.768 150.085 103.769 150.085 103.769C150.086 103.77 150.086 103.77 150.087 103.77C150.087 103.771 150.088 103.771 150.089 103.771C150.839 104.902 151.62 106.012 152.427 107.118C153.811 109.008 155.261 110.856 156.777 112.662C157.298 113.283 157.827 113.896 158.365 114.501Z" fill="white"/>
<path d="M165.492 112.254V112.489C164.987 111.897 164.471 111.312 163.961 110.726C163.746 110.481 163.532 110.236 163.317 109.992C162.408 108.963 161.495 107.937 160.576 106.914C159.651 105.895 158.727 104.876 157.793 103.862C157.568 103.618 157.344 103.373 157.114 103.129C156.93 102.923 156.73 102.732 156.517 102.558C156.301 102.379 156.053 102.242 155.787 102.155C155.48 102.07 155.156 102.067 154.847 102.145C154.495 102.227 154.158 102.354 153.816 102.461C153.463 102.578 153.116 102.69 152.764 102.802C152.059 103.032 151.36 103.261 150.655 103.49C150.647 103.494 150.637 103.496 150.628 103.495C150.619 103.495 150.609 103.493 150.601 103.489C150.592 103.486 150.584 103.48 150.578 103.473C150.572 103.466 150.567 103.458 150.564 103.45C150.56 103.44 150.558 103.43 150.558 103.419C150.559 103.409 150.561 103.398 150.566 103.389C150.571 103.38 150.578 103.372 150.586 103.366C150.595 103.359 150.604 103.355 150.615 103.353C150.788 103.297 150.967 103.241 151.146 103.185C151.855 102.95 152.56 102.721 153.27 102.492C153.622 102.374 153.974 102.262 154.326 102.15C154.653 102.026 154.998 101.958 155.348 101.947C155.918 101.987 156.453 102.238 156.849 102.65C157.068 102.853 157.267 103.067 157.466 103.287C157.701 103.541 157.936 103.796 158.171 104.051C159.115 105.08 160.053 106.113 160.984 107.149C161.918 108.188 162.844 109.229 163.761 110.272C163.828 110.349 163.894 110.425 163.961 110.501C164.476 111.082 164.982 111.668 165.492 112.254Z" fill="white"/>
<path d="M140.15 91.9982L140.009 92.0598C139.685 91.5146 139.232 91.0577 138.689 90.7296C138.145 90.4014 137.53 90.2123 136.896 90.1789C134.805 90.0308 132.969 91.4209 132.802 93.2776C132.734 94.0422 132.956 94.8043 133.424 95.4137L133.293 95.491C132.806 94.8564 132.575 94.0627 132.645 93.2665C132.819 91.333 134.731 89.8853 136.908 90.0396C137.568 90.0743 138.21 90.2713 138.775 90.613C139.341 90.9547 139.813 91.4305 140.15 91.9982V91.9982Z" fill="#FF6582"/>
<path d="M129.821 95.7547C129.273 95.5166 128.675 95.4122 128.078 95.4501C127.481 95.488 126.902 95.6672 126.388 95.9728C128.264 96.2601 130.124 96.6456 131.959 97.1279C131.199 96.7323 130.605 96.1124 129.821 95.7547Z" fill="white"/>
<path d="M126.377 95.9711L126.171 96.1209C126.241 96.0685 126.313 96.0193 126.388 95.9728L126.377 95.9711Z" fill="white"/>
<path d="M156.437 103.497C156.245 103.249 155.987 103.058 155.694 102.945L155.404 102.955C157.682 106.494 160.668 109.526 164.173 111.861C161.595 109.073 159.016 106.285 156.437 103.497Z" fill="white"/>
<path d="M132.599 96.8362C132.516 96.7546 132.434 96.6731 132.351 96.5916C131.716 95.9014 130.951 95.3425 130.099 94.9468C129.666 94.7646 129.2 94.6688 128.73 94.6649C128.244 94.6762 127.764 94.7693 127.309 94.9403C127.095 95.0162 126.885 95.1024 126.679 95.1942C126.444 95.2995 126.212 95.4118 125.982 95.525C125.55 95.7375 125.123 95.9593 124.702 96.1904C123.865 96.6503 123.053 97.1453 122.268 97.6754C121.861 97.9503 121.462 98.2342 121.072 98.5271C120.709 98.7992 120.353 99.0786 120.005 99.3654C119.931 99.4264 119.819 99.3276 119.894 99.2666C119.986 99.1906 120.078 99.1151 120.171 99.0406C120.434 98.83 120.7 98.6234 120.971 98.4209C121.464 98.0509 121.971 97.6952 122.49 97.3539C123.297 96.8227 124.132 96.3275 124.995 95.8684C125.426 95.6392 125.863 95.4196 126.306 95.2096C126.44 95.1462 126.575 95.0842 126.712 95.0255C127.025 94.8856 127.348 94.7689 127.677 94.6765C128.151 94.5412 128.646 94.498 129.135 94.5493C129.604 94.609 130.059 94.7488 130.48 94.9626C131.315 95.4295 132.068 96.0288 132.71 96.7369C132.777 96.804 132.666 96.9033 132.599 96.8362Z" fill="white"/>
<path d="M56.3093 77.8C67.8177 74.1357 80.6569 75.1058 91.5594 80.268C94.6702 81.7333 97.6082 83.5391 100.319 85.6523C101.086 86.2529 102.177 85.1785 101.402 84.5714C91.3883 76.8201 78.8062 73.1379 66.1836 74.2646C62.6915 74.5764 59.244 75.2677 55.9021 76.326C54.9666 76.6238 55.3665 78.1002 56.3093 77.8H56.3093Z" fill="#3F3D56"/>
<path d="M56.3093 87.9904C67.8177 84.3261 80.6569 85.2962 91.5594 90.4584C94.6702 91.9237 97.6082 93.7296 100.319 95.8427C101.086 96.4434 102.177 95.369 101.402 94.7619C91.3883 87.0106 78.8062 83.3284 66.1836 84.455C62.6915 84.7669 59.244 85.4581 55.9021 86.5165C54.9666 86.8143 55.3665 88.2906 56.3093 87.9904H56.3093Z" fill="#3F3D56"/>
<path d="M56.3093 98.1809C67.8177 94.5166 80.6569 95.4867 91.5594 100.649C94.6702 102.114 97.6082 103.92 100.319 106.033C101.086 106.634 102.177 105.559 101.402 104.952C91.3883 97.201 78.8062 93.5188 66.1836 94.6455C62.6915 94.9573 59.244 95.6486 55.9021 96.7069C54.9666 97.0047 55.3665 98.4811 56.3093 98.1809H56.3093Z" fill="#3F3D56"/>
<path d="M56.3093 108.371C67.8177 104.707 80.6569 105.677 91.5594 110.839C94.6702 112.305 97.6082 114.11 100.319 116.224C101.086 116.824 102.177 115.75 101.402 115.143C91.3883 107.391 78.8062 103.709 66.1836 104.836C62.6915 105.148 59.244 105.839 55.9021 106.897C54.9666 107.195 55.3665 108.672 56.3093 108.371H56.3093Z" fill="#3F3D56"/>
<path d="M56.3093 118.562C67.8177 114.897 80.6569 115.868 91.5594 121.03C94.6702 122.495 97.6082 124.301 100.319 126.414C101.086 127.015 102.177 125.94 101.402 125.333C91.3883 117.582 78.8062 113.9 66.1836 115.026C62.6915 115.338 59.244 116.029 55.9021 117.088C54.9666 117.386 55.3665 118.862 56.3093 118.562L56.3093 118.562Z" fill="#3F3D56"/>
<path d="M97.7724 51.2137V79.775C97.7724 80.2614 96.9226 80.668 95.7753 80.7777C95.5754 80.7977 95.3654 80.8077 95.148 80.8077C94.5166 80.8196 93.8882 80.7174 93.2933 80.5058C93.1831 80.4631 93.0761 80.4122 92.9734 80.3537C92.6885 80.1865 92.5235 79.9895 92.5235 79.775V49.0111C93.4583 49.3229 94.3306 49.6497 95.148 49.9889C96.0978 50.3831 96.9701 50.7922 97.7724 51.2137Z" fill="#FE9065"/>
<path d="M108.773 61.0069H108.023V153.396H108.773V61.0069Z" fill="#E6E6E6"/>
<path d="M175.695 135.459C174.922 136.262 173.987 136.893 172.953 137.312C171.919 137.73 170.808 137.926 169.693 137.887C166.225 137.765 162.087 137.704 157.596 137.797L157.571 137.776L177.036 112.595L177.875 129.383C177.96 130.492 177.809 131.606 177.433 132.653C177.057 133.7 176.465 134.656 175.695 135.459V135.459Z" fill="#F2F2F2"/>
<path d="M127.238 223.467L126.2 231.877L125.407 238.269L125.09 240.849H120.577V238.557L120.574 230.974V223.467H127.238Z" fill="#FFB6B6"/>
<path d="M95.7704 222.585L94.4908 226.528L93.4635 229.69L93.2869 230.233L92.584 232.395L91.0989 236.967L90.36 239.244L86.2543 238.453L85.9263 238.392L86.1931 237.017L86.3553 236.179L88.1503 226.891L88.4423 225.395L88.4892 225.154L88.6225 224.459L89.2281 221.326L93.6041 222.168L94.1087 222.265L95.7704 222.585Z" fill="#FFB6B6"/>
<path d="M134.019 173.382C131.438 187.537 130.792 193.649 130.792 193.649C130.792 193.649 132.728 195.901 131.438 197.188C130.147 198.476 131.438 201.048 131.438 201.048L128.536 232.255L126.2 231.877L120.573 230.974L118.544 230.647L119.835 201.372C119.835 201.372 118.544 198.796 119.189 198.152C119.835 197.509 118.544 193.649 118.544 193.649L116.933 163.086L106.937 196.544C106.937 196.544 107.907 197.832 106.937 198.796C105.971 199.76 104.039 204.588 104.039 204.588L98.0953 225.344L97.5906 227.107L94.4907 226.528L91.1168 225.895L90.4968 225.78L89.3938 225.571L88.6837 225.438L88.4422 225.395L87.2743 225.175L87.6276 223.61L87.8114 222.787L92.8398 200.498L92.9552 199.983L93.0777 199.44C93.0777 199.44 92.4325 197.832 93.3985 196.865C93.6811 196.57 93.8876 196.211 94 195.818C94.1124 195.426 94.1274 195.012 94.0438 194.613C94.0121 194.579 93.9832 194.543 93.9572 194.505C93.8431 194.349 93.7644 194.169 93.7266 193.98C93.64 193.577 93.7157 193.012 94.3682 192.361C94.5519 192.166 94.7061 191.945 94.8259 191.706C95.8064 189.854 96.3002 185.929 96.3002 185.929C96.3002 185.929 97.1725 154.845 100.027 150.096C100.14 149.889 100.299 149.711 100.492 149.575C103.715 147.647 134.66 149.575 134.66 149.575C134.66 149.575 134.703 149.798 134.772 150.222C135.143 152.607 136.207 161.374 134.019 173.382Z" fill="#2F2E41"/>
<path d="M133.004 116.275L133.908 110.843L150.548 113.638L174.156 115.323C174.669 114.758 175.35 114.372 176.1 114.225C176.849 114.077 177.626 114.175 178.316 114.503C179.005 114.832 179.569 115.374 179.925 116.049C180.281 116.724 180.409 117.495 180.289 118.248C180.17 119.001 179.811 119.696 179.264 120.228C178.717 120.761 178.013 121.103 177.256 121.204C176.499 121.305 175.729 121.159 175.061 120.788C174.394 120.417 173.865 119.841 173.552 119.145L159.072 120.118L133.004 116.275Z" fill="#FFB6B6"/>
<path d="M120.566 112.515L121.741 107.666C121.741 107.666 128.121 106.494 133.165 107.615L152.142 111.25L150.606 122.697L120.566 112.515Z" fill="#FE9065"/>
<path d="M76.5206 152.447L87.1372 129.43L94.8849 113.146L101.604 117.092L80.6867 154.98C80.8704 155.655 80.8493 156.37 80.626 157.033C80.4027 157.697 79.9873 158.279 79.4323 158.707C78.8773 159.135 78.2076 159.389 77.5079 159.437C76.8082 159.485 76.11 159.325 75.5015 158.977C74.893 158.629 74.4016 158.109 74.0894 157.482C73.7772 156.855 73.6582 156.15 73.7475 155.456C73.8368 154.762 74.1303 154.11 74.5911 153.582C75.0518 153.054 75.6589 152.675 76.3357 152.492C76.397 152.475 76.4586 152.46 76.5207 152.447L76.5206 152.447Z" fill="#FFB6B6"/>
<path d="M107.139 106.168L101.986 103.809C101.986 103.809 101.072 103.492 99.1015 106.215C97.131 108.938 80.1808 134.63 80.1808 134.63L90.9444 139.486L107.139 106.168Z" fill="#FE9065"/>
<path d="M133.071 245.856L126.362 241.23V238.212L125.407 238.269L120.577 238.557L119.305 238.633L118.425 249.144L118.414 249.291H121.583L121.612 249.144L122.149 246.306L123.522 249.144L123.594 249.291H132C132.252 249.291 132.502 249.241 132.735 249.144C133.047 249.012 133.318 248.8 133.519 248.528C133.721 248.256 133.845 247.935 133.879 247.599C133.913 247.263 133.856 246.924 133.714 246.617C133.572 246.31 133.35 246.047 133.071 245.856H133.071Z" fill="#2F2E41"/>
<path d="M97.2915 246.133L94.3681 242.953L92.328 240.73L91.9927 240.363L91.9423 240.309L91.7801 240.133L92.4541 237.19L91.0988 236.967L86.3552 236.179L86.0992 236.14L85.5946 236.053L85.4793 236.035L83.8608 241.126L82.3937 245.726L82.2351 246.23L84.1852 246.673L85.3243 246.932L85.8866 245.644L85.9479 245.507L86.3155 244.662V244.658L86.5426 244.147L87.2888 247.378L87.4185 247.406L87.4366 247.41L87.8943 247.514L88.7883 247.719L95.0386 249.144L95.482 249.245C95.9703 249.353 96.4819 249.265 96.9052 248.999C97.3285 248.732 97.6293 248.31 97.742 247.824C97.8099 247.526 97.8044 247.217 97.7259 246.923C97.6474 246.628 97.4983 246.357 97.2915 246.133V246.133Z" fill="#2F2E41"/>
<path d="M126.222 91.3273C125.493 92.6624 124.481 93.8227 123.256 94.7273C122.032 95.6319 120.624 96.259 119.132 96.5649C118.966 96.6009 118.8 96.6296 118.63 96.6548C116.289 97.0201 113.892 96.5839 111.83 95.4171C109.769 94.2502 108.163 92.4215 107.275 90.2283C106.387 88.0352 106.269 85.6067 106.94 83.3381C107.611 81.0694 109.031 79.0941 110.97 77.7334C112.909 76.3728 115.252 75.7069 117.618 75.8442C119.984 75.9814 122.234 76.9137 124.002 78.4893C125.77 80.065 126.951 82.1912 127.354 84.5222C127.757 86.8531 127.358 89.2515 126.222 91.3273V91.3273Z" fill="#FFB6B6"/>
<path d="M122.048 77.1072C118.613 74.7496 115.588 74.3904 113.103 75.0591C112.781 74.5619 112.329 74.1616 111.796 73.9012C109.858 69.0279 103.96 66.1012 98.8989 67.5239C93.8048 68.9558 90.29 74.5872 91.2485 79.7814C91.8426 83.0011 93.8729 85.7891 94.6896 88.9598C96.2705 95.0978 92.414 102.129 86.3811 104.107C92.0932 105.252 98.3808 101.77 100.43 96.3271C101.425 93.6835 101.485 90.7971 101.612 87.9758C101.645 86.0284 101.884 84.09 102.325 82.1927C102.544 81.3415 102.853 80.5161 103.247 79.7303C104.106 78.0032 105.532 76.6222 107.288 75.8178C107.131 76.3031 107.092 76.8188 107.173 77.3223C107.255 77.8257 107.456 78.3026 107.759 78.7134C106.419 80.3881 105.69 82.1992 105.69 83.2838C102.907 88.3595 106.887 92.7194 111.973 95.4965C114.002 96.61 116.344 97.0176 118.63 96.6549L118.843 95.7484L119.132 96.5649L120.094 99.3025C121.204 99.8385 122.305 100.426 123.396 101.065C122.981 99.1226 122.646 97.1837 122.415 95.2879C122.096 92.7077 123.209 88.8663 124.013 86.5303C124.511 85.0906 124.766 83.5785 124.769 82.0554V81.9888L125.551 84.4961L128.399 83.2838C127.869 80.2513 128.399 76.8087 122.048 77.1072Z" fill="#2F2E41"/>
<path d="M100.169 146.68C100.543 145.202 100.543 143.654 100.169 142.176C99.5242 139.924 100.814 138.959 100.814 138.959L101.136 104.215C102.498 102.856 106.147 102.834 108.188 102.939V101.409C108.188 100.846 108.412 100.305 108.812 99.9071C109.211 99.5087 109.752 99.2849 110.317 99.2849H119.757C120.321 99.2849 120.863 99.5087 121.262 99.9071C121.661 100.305 121.886 100.846 121.886 101.409V103.243L124.654 103.287C129.476 103.645 133.694 108.397 133.694 108.397L129.504 124.482C129.504 124.482 130.793 137.672 132.405 139.281C134.017 140.889 133.372 141.854 133.372 141.854C133.372 141.854 132.405 145.393 134.339 146.68C136.273 147.967 134.984 150.219 134.984 150.219C134.984 150.219 100.169 150.862 99.2019 149.897C98.2348 148.932 100.169 146.68 100.169 146.68Z" fill="#FE9065"/>
<path d="M164.315 249.572C164.315 249.628 164.304 249.684 164.283 249.736C164.261 249.788 164.23 249.835 164.19 249.875C164.15 249.915 164.103 249.946 164.05 249.968C163.998 249.989 163.942 250 163.886 250H62.8533C62.7396 250 62.6305 249.955 62.55 249.875C62.4696 249.794 62.4244 249.685 62.4244 249.572C62.4244 249.458 62.4696 249.35 62.55 249.269C62.6305 249.189 62.7396 249.144 62.8533 249.144H163.886C163.942 249.144 163.998 249.155 164.05 249.176C164.103 249.198 164.15 249.229 164.19 249.269C164.23 249.309 164.261 249.356 164.283 249.408C164.304 249.46 164.315 249.516 164.315 249.572V249.572Z" fill="#CCCCCC"/>
</g>
<defs>
<clipPath id="clip0_11_48">
<rect width="212" height="250" fill="white"/>
</clipPath>
</defs>
</svg>
